:SAMPLES-PER-SECOND 30
:FULLY-SPECIFIED
:DEGREES
121
root  -9.80131 39.7002 18.4044 173.601 60.0285 173.341
RightUpLeg  -13.3409 -9.21082 -11.8197
RightLeg  8.4369 -16.9849 -3.54457
RightFoot  7.75096 -1.13928 7.08372
RightToes  -1.74624e-010 0 -3.6325e-017
Spine  3.19603 -0.191202 -14.5103
Spine1  23.1813 -1.2842 0.962607
HEad  -17.1448 44.1739 -11.2518
LeftShoulder1  1.81965 -3.84091 -18.1921
LeftArm  9.309 1.37613 -56.9534
LeftForeArm  -7.56849 -76.3133 -65.2212
LeftHand  -0.133652 4.89171 31.9102
RightShoulder  1.10776 1.43355 15.7523
RightArm  2.19096 -17.1365 57.0897
RightForeArm  8.08981 44.8335 10.5898
RightHand  -0.610253 3.51315 -8.19713
LeftUpLeg  -1.97561 -0.550752 -4.12822
LeftLeg  12.3712 9.50519 1.72624
LeftFoot  -9.46548 0.0498675 0.516193
LeftToes  -5.82109e-011 1.10366e-010 -8.03124e-011
122
root  -9.67893 39.6818 18.4056 173.042 60.1743 172.76
RightUpLeg  -12.7522 -9.32208 -12.2552
RightLeg  6.79388 -14.9753 -2.94445
RightFoot  7.64382 -1.44031 8.91203
RightToes  -1.74624e-010 0 -3.6325e-017
Spine  2.53728 -0.196835 -14.8222
Spine1  23.7368 -1.18215 0.855826
HEad  -17.1811 44.1508 -11.2152
LeftShoulder1  1.82092 -3.82234 -18.2785
LeftArm  9.55439 1.95506 -56.8579
LeftForeArm  -6.97508 -76.4988 -67.1817
LeftHand  -0.0947133 5.03639 32.289
RightShoulder  1.07299 1.30948 15.5962
RightArm  1.90969 -17.2271 57.0792
RightForeArm  8.27513 44.5724 10.4773
RightHand  -0.609299 3.59196 -8.11744
LeftUpLeg  -1.69011 -0.643202 -4.35721
LeftLeg  12.2939 9.83952 1.77687
LeftFoot  -9.55457 0.0490863 0.532465
LeftToes  -5.82109e-011 1.10366e-010 -8.03124e-011
123
root  -9.51678 39.6587 18.4234 172.35 60.2106 172.097
RightUpLeg  -11.9203 -9.62219 -12.6273
RightLeg  5.32079 -12.8256 -2.39251
RightFoot  7.84805 -1.79493 10.9056
RightToes  -1.74624e-010 0 -3.6325e-017
Spine  2.0052 -0.206098 -15.0261
Spine1  24.1823 -1.0778 0.70735
HEad  -17.0111 44.0894 -11.0718
LeftShoulder1  1.82421 -3.81985 -18.3362
LeftArm  9.81344 1.87896 -56.6979
LeftForeArm  -5.39218 -76.6895 -69.3407
LeftHand  -0.0412297 5.22282 32.0653
RightShoulder  1.04759 1.21482 15.4975
RightArm  1.40903 -17.4255 57.0667
RightForeArm  8.35411 44.6303 10.4939
RightHand  -0.644105 3.74716 -8.42897
LeftUpLeg  -1.31944 -0.768535 -4.58613
LeftLeg  12.2541 10.057 1.83765
LeftFoot  -9.69364 0.053059 0.360027
LeftToes  -5.82109e-011 1.10366e-010 -8.03124e-011
124
root  -9.34066 39.6497 18.4643 171.755 60.2161 171.626
RightUpLeg  -11.1775 -10.0219 -12.8332
RightLeg  4.49089 -11.6162 -1.96476
RightFoot  8.56723 -1.96669 11.513
RightToes  -1.74624e-010 0 -3.6325e-017
Spine  1.88566 -0.223122 -14.9283
Spine1  24.2228 -0.977643 0.460619
HEad  -16.6518 44.1465 -10.7906
LeftShoulder1  1.81757 -3.79673 -18.323
LeftArm  10.006 1.22965 -56.4784
LeftForeArm  -3.13338 -76.8224 -70.8989
LeftHand  -0.202733 4.67473 32.9296
RightShoulder  1.04429 1.19338 15.5437
RightArm  0.963892 -17.5646 56.9463
RightForeArm  8.1939 44.8454 10.5872
RightHand  -0.6978 3.86765 -8.99741
LeftUpLeg  -0.860415 -0.937022 -4.71289
LeftLeg  12.1759 10.2546 1.96816
LeftFoot  -9.77643 0.0578391 0.0664187
LeftToes  -5.82109e-011 1.10366e-010 -8.03124e-011
125
root  -9.16784 39.6508 18.5265 171.535 60.2867 171.623
RightUpLeg  -10.7047 -10.2888 -12.7608
RightLeg  4.31124 -11.3529 -1.63259
RightFoot  9.2623 -1.93308 10.9576
RightToes  -1.74624e-010 0 -3.6325e-017
Spine  2.10744 -0.292896 -14.4698
Spine1  24.0104 -0.920411 0.108821
HEad  -16.5141 44.3709 -10.7059
LeftShoulder1  1.80986 -3.77723 -18.2805
LeftArm  9.89873 0.196885 -56.3025
LeftForeArm  -0.884284 -76.892 -71.6256
LeftHand  -0.457711 3.8433 34.126
RightShoulder  1.05246 1.22754 15.5675
RightArm  0.646035 -17.4074 56.8318
RightForeArm  7.77401 45.1358 10.7287
RightHand  -0.746181 3.93543 -9.53549
LeftUpLeg  -0.497557 -1.04401 -4.59703
LeftLeg  12.3341 10.3768 2.23116
LeftFoot  -9.88758 0.062838 -0.273515
LeftToes  -5.82109e-011 1.10366e-010 -8.03124e-011
